<svg aria-hidden="true" style="width:0;height:0;position:absolute;overflow:hidden" xmlns="http://www.w3.org/2000/svg"><defs><symbol id="icon-film" viewBox="0 0 32 32"><path fill="none" stroke="#fff" stroke-width="2.667" stroke-linecap="round" stroke-linejoin="round" style="stroke:var(--color1,#fff)" d="M26.427 2.667H5.574a2.907 2.907 0 0 0-2.907 2.907v20.853a2.907 2.907 0 0 0 2.907 2.907h20.853a2.907 2.907 0 0 0 2.907-2.907V5.574a2.907 2.907 0 0 0-2.907-2.907zM9.333 2.667v26.667M22.667 2.667v26.667M2.667 16h26.667M2.667 9.333h6.667M2.667 22.667h6.667M22.667 22.667h6.667M22.667 9.333h6.667"/></symbol><symbol id="icon-search" viewBox="0 0 32 32"><path fill="none" stroke="#fff" style="stroke:var(--color3,#fff)" stroke-linejoin="round" stroke-linecap="round" stroke-width="2.667" d="M14.667 25.333c5.891 0 10.667-4.776 10.667-10.667S20.558 3.999 14.667 3.999 4 8.775 4 14.666s4.776 10.667 10.667 10.667zM28 28.001l-5.8-5.8"/></symbol><symbol id="footer-heart" viewBox="0 0 34 32"><path d="m17.231 31.705-2.412-2.412C5.859 21.367.001 16.025.001 9.478.001 4.136 4.136.001 9.478.001c2.929 0 5.858 1.378 7.754 3.618 1.895-2.24 4.825-3.618 7.754-3.618 5.342 0 9.477 4.135 9.477 9.477 0 6.548-5.858 11.889-14.818 19.815l-2.412 2.412z"/></symbol><symbol id="arrow-pagination" viewBox="0 0 16 16" fill="none"><path d="M12.667 8H3.333M8 12.667 3.333 8 8 3.333" stroke-width="1.333" stroke-linecap="round" stroke-linejoin="round"/></symbol><symbol id="dark" viewBox="0 0 32 32"><path d="M16 28.367q-5.167 0-8.767-3.6T3.633 16t3.6-8.783T16 3.6h.433q.233 0 .667.033-.9 1.2-1.4 2.617t-.5 2.95q0 3.167 2.233 5.4t5.433 2.233q1.5 0 2.933-.433t2.6-1.267v.833q0 5.167-3.617 8.783t-8.783 3.617zm0-3.134q2.967 0 5.267-1.75t3-4.083q-.567.267-1.283.383t-1.383.05q-3.733-.433-6.35-2.983t-3.083-6.483q-.033-.5.05-1.167t.417-1.567q-2.533.967-4.2 3.317T6.768 16q0 3.867 2.683 6.55t6.55 2.683z"/></symbol><symbol id="to-top-icon" viewBox="0 0 32 32"><path d="M9.919 8.05 4 13.969v5.063l12-12 12 12v-5.063l-5.925-5.925C17.381 3.35 16.125 2.125 16 2.125S14.619 3.35 9.919 8.05z"/><path d="M9.919 19.05 4 24.969v5.063l12-12 12 12v-5.063l-5.925-5.925c-4.694-4.694-5.95-5.919-6.075-5.919s-1.381 1.225-6.081 5.925z"/></symbol></defs></svg>