<svg aria-hidden="true" style="width:0;height:0;position:absolute;overflow:hidden" xmlns="http://www.w3.org/2000/svg"><defs><symbol id="icon-film" viewBox="0 0 32 32"><path fill="none" stroke="#fff" stroke-width="2.667" stroke-linecap="round" stroke-linejoin="round" style="stroke:var(--color1,#fff)" d="M26.427 2.667H5.574a2.907 2.907 0 0 0-2.907 2.907v20.853a2.907 2.907 0 0 0 2.907 2.907h20.853a2.907 2.907 0 0 0 2.907-2.907V5.574a2.907 2.907 0 0 0-2.907-2.907zM9.333 2.667v26.667M22.667 2.667v26.667M2.667 16h26.667M2.667 9.333h6.667M2.667 22.667h6.667M22.667 22.667h6.667M22.667 9.333h6.667"/></symbol><symbol id="icon-search" viewBox="0 0 32 32"><path stroke="#fff" style="stroke:var(--color3,#fff)" stroke-linejoin="round" stroke-linecap="round" stroke-width="2.667" d="M14.667 25.333c5.891 0 10.667-4.776 10.667-10.667S20.558 3.999 14.667 3.999 4 8.775 4 14.666s4.776 10.667 10.667 10.667z"/><path fill="none" stroke="#fff" style="stroke:var(--color3,#fff)" stroke-linejoin="round" stroke-linecap="round" stroke-width="2.667" d="m28 28.001-5.8-5.8"/></symbol><symbol id="footer-heart" viewBox="0 0 34 32"><path d="m17.231 31.705-2.412-2.412C5.859 21.367.001 16.025.001 9.478.001 4.136 4.136.001 9.478.001c2.929 0 5.858 1.378 7.754 3.618 1.895-2.24 4.825-3.618 7.754-3.618 5.342 0 9.477 4.135 9.477 9.477 0 6.548-5.858 11.889-14.818 19.815l-2.412 2.412z"/></symbol><symbol id="arrow-pagination" viewBox="0 0 16 16" fill="none"><path d="M12.667 8H3.333M8 12.667 3.333 8 8 3.333" stroke-width="1.333" stroke-linecap="round" stroke-linejoin="round"/></symbol><symbol id="to-top-icon" viewBox="0 0 32 32"><path d="M9.919 8.05 4 13.969v5.063l12-12 12 12v-5.063l-5.925-5.925C17.381 3.35 16.125 2.125 16 2.125S14.619 3.35 9.919 8.05z"/><path d="M9.919 19.05 4 24.969v5.063l12-12 12 12v-5.063l-5.925-5.925c-4.694-4.694-5.95-5.919-6.075-5.919s-1.381 1.225-6.081 5.925z"/></symbol><symbol id="icon-close" viewBox="0 0 32 32"><path d="M23.884 6.706 16 14.59 8.116 6.706a.995.995 0 0 0-1.38.031 1 1 0 0 0-.031 1.38l7.88 7.884-7.882 7.882a1.002 1.002 0 0 0-.018 1.427.998.998 0 0 0 1.427-.015l7.886-7.882 7.884 7.884a1 1 0 0 0 1.38-.03 1 1 0 0 0 .03-1.38l-7.884-7.884 7.884-7.886a1.002 1.002 0 0 0 .018-1.427.998.998 0 0 0-1.427.015v.002z"/></symbol><symbol id="youtube" viewBox="0 0 32 32"><path fill="red" style="fill:var(--color1,red)" d="M31.327 8.273a4.026 4.026 0 0 0-2.756-2.777l-.028-.007c-2.493-.668-12.528-.668-12.528-.668s-10.009-.013-12.528.668A4.026 4.026 0 0 0 .71 8.245l-.007.028C.26 10.554.007 13.176.007 15.858v.163-.008.126c0 2.682.253 5.304.737 7.845l-.041-.26a4.026 4.026 0 0 0 2.756 2.777l.028.007c2.491.669 12.528.669 12.528.669s10.008 0 12.528-.669a4.026 4.026 0 0 0 2.777-2.756l.007-.028c.425-2.233.668-4.803.668-7.429l-.001-.297v.015l.001-.31c0-2.626-.243-5.196-.708-7.687l.04.258zM12.812 20.801V11.21l8.352 4.803z"/></symbol><symbol id="youtube" viewBox="0 0 32 32"><path d="M31.327 8.273a4.026 4.026 0 0 0-2.756-2.777l-.028-.007c-2.493-.668-12.528-.668-12.528-.668s-10.009-.013-12.528.668A4.026 4.026 0 0 0 .71 8.245l-.007.028C.26 10.554.007 13.176.007 15.858v.163-.008.126c0 2.682.253 5.304.737 7.845l-.041-.26a4.026 4.026 0 0 0 2.756 2.777l.028.007c2.491.669 12.528.669 12.528.669s10.008 0 12.528-.669a4.026 4.026 0 0 0 2.777-2.756l.007-.028c.425-2.233.668-4.803.668-7.429l-.001-.297v.015l.001-.31c0-2.626-.243-5.196-.708-7.687l.04.258zM12.812 20.801V11.21l8.352 4.803z"/></symbol><symbol id="icon-github" viewBox="0 0 32 32"><path d="M16 .395c-8.836 0-16 7.163-16 16 0 7.069 4.585 13.067 10.942 15.182.8.148 1.094-.347 1.094-.77 0-.381-.015-1.642-.022-2.979-4.452.968-5.391-1.888-5.391-1.888-.728-1.849-1.776-2.341-1.776-2.341-1.452-.993.11-.973.11-.973 1.606.113 2.452 1.649 2.452 1.649 1.427 2.446 3.743 1.739 4.656 1.33.143-1.034.558-1.74 1.016-2.14-3.554-.404-7.29-1.777-7.29-7.907 0-1.747.625-3.174 1.649-4.295-.166-.403-.714-2.03.155-4.234 0 0 1.344-.43 4.401 1.64a15.353 15.353 0 0 1 4.005-.539c1.359.006 2.729.184 4.008.539 3.054-2.07 4.395-1.64 4.395-1.64.871 2.204.323 3.831.157 4.234 1.026 1.12 1.647 2.548 1.647 4.295 0 6.145-3.743 7.498-7.306 7.895.574.497 1.085 1.47 1.085 2.963 0 2.141-.019 3.864-.019 4.391 0 .426.288.925 1.099.768C27.421 29.457 32 23.462 32 16.395c0-8.837-7.164-16-16-16z"/></symbol><symbol id="icon-linkedin" viewBox="0 0 32 32"><path d="M12 12h5.535v2.837h.079c.77-1.381 2.655-2.837 5.464-2.837C28.92 12 30 15.637 30 20.367V30h-5.769v-8.54c0-2.037-.042-4.657-3.001-4.657-3.005 0-3.463 2.218-3.463 4.509V30H12V12zM2 12h6v18H2V12zM8 7a3 3 0 1 1-6 0 3 3 0 0 1 6 0z"/></symbol></defs></svg>