<svg aria-hidden="true" style="position: absolute; width: 0; height: 0; overflow: hidden;" version="1.1" xmlns="http://www.w3.org/2000/svg" xmlns:xlink="http://www.w3.org/1999/xlink">
<defs>

<symbol id="icon-film" viewBox="0 0 32 32">
<path fill="none" stroke="#fff" stroke-width="2.6667" stroke-miterlimit="4" stroke-linecap="round" stroke-linejoin="round" style="stroke: var(--color1, #fff)" d="M26.427 2.667h-20.853c-1.605 0-2.907 1.301-2.907 2.907v20.853c0 1.605 1.301 2.907 2.907 2.907h20.853c1.605 0 2.907-1.301 2.907-2.907v-20.853c0-1.605-1.301-2.907-2.907-2.907z"></path>
<path fill="none" stroke="#fff" stroke-width="2.6667" stroke-miterlimit="4" stroke-linecap="round" stroke-linejoin="round" style="stroke: var(--color1, #fff)" d="M9.333 2.667v26.667"></path>
<path fill="none" stroke="#fff" stroke-width="2.6667" stroke-miterlimit="4" stroke-linecap="round" stroke-linejoin="round" style="stroke: var(--color1, #fff)" d="M22.667 2.667v26.667"></path>
<path fill="none" stroke="#fff" stroke-width="2.6667" stroke-miterlimit="4" stroke-linecap="round" stroke-linejoin="round" style="stroke: var(--color1, #fff)" d="M2.667 16h26.667"></path>
<path fill="none" stroke="#fff" stroke-width="2.6667" stroke-miterlimit="4" stroke-linecap="round" stroke-linejoin="round" style="stroke: var(--color1, #fff)" d="M2.667 9.333h6.667"></path>
<path fill="none" stroke="#fff" stroke-width="2.6667" stroke-miterlimit="4" stroke-linecap="round" stroke-linejoin="round" style="stroke: var(--color1, #fff)" d="M2.667 22.667h6.667"></path>
<path fill="none" stroke="#fff" stroke-width="2.6667" stroke-miterlimit="4" stroke-linecap="round" stroke-linejoin="round" style="stroke: var(--color1, #fff)" d="M22.667 22.667h6.667"></path>
<path fill="none" stroke="#fff" stroke-width="2.6667" stroke-miterlimit="4" stroke-linecap="round" stroke-linejoin="round" style="stroke: var(--color1, #fff)" d="M22.667 9.333h6.667"></path>
</symbol>

<symbol id="icon-search" viewBox="0 0 32 32">
<path fill="none" stroke="#fff" style="stroke: var(--color3, #fff)" stroke-linejoin="round" stroke-linecap="round" stroke-miterlimit="4" stroke-width="2.6667" d="M14.667 25.333c5.891 0 10.667-4.776 10.667-10.667s-4.776-10.667-10.667-10.667c-5.891 0-10.667 4.776-10.667 10.667s4.776 10.667 10.667 10.667z"></path>
<path fill="none" stroke="#fff" style="stroke: var(--color3, #fff)" stroke-linejoin="round" stroke-linecap="round" stroke-miterlimit="4" stroke-width="2.6667" d="M28 28.001l-5.8-5.8"></path>
</symbol>

<symbol id="footer-heart" viewBox="0 0 34 32">
<path d="M17.231 31.705l-2.412-2.412c-8.96-7.926-14.818-13.268-14.818-19.815 0-5.342 4.135-9.477 9.477-9.477 2.929 0 5.858 1.378 7.754 3.618 1.895-2.24 4.825-3.618 7.754-3.618 5.342 0 9.477 4.135 9.477 9.477 0 6.548-5.858 11.889-14.818 19.815l-2.412 2.412z">
</path>
</symbol>

<symbol id="arrow-pagination" viewBox="0 0 16 16"  fill="none">
<path d="M12.667 8H3.333M8 12.667 3.333 8 8 3.333" stroke-width="1.333" stroke-linecap="round" stroke-linejoin="round">
</path>
</symbol>

<symbol id="sunny" viewBox="0 0 32 32">
<path d="M16 6.7q-0.667 0-1.117-0.45t-0.45-1.117v-3q0-0.667 0.45-1.117t1.117-0.45 1.117 0.45 0.45 1.117v3q0 0.667-0.45 1.117t-1.117 0.45zM22.567 9.433q-0.467-0.467-0.467-1.1t0.467-1.1l2.1-2.133q0.433-0.433 1.1-0.433t1.133 0.433q0.467 0.467 0.467 1.1t-0.467 1.1l-2.133 2.133q-0.467 0.467-1.1 0.467t-1.1-0.467zM26.867 17.567q-0.667 0-1.117-0.45t-0.45-1.117 0.45-1.117 1.117-0.45h3q0.667 0 1.117 0.45t0.45 1.117-0.45 1.117-1.117 0.45zM16 31.433q-0.667 0-1.117-0.45t-0.45-1.117v-3q0-0.667 0.45-1.117t1.117-0.45 1.117 0.45 0.45 1.117v3q0 0.667-0.45 1.117t-1.117 0.45zM7.233 9.433l-2.133-2.1q-0.467-0.433-0.467-1.083t0.467-1.15q0.5-0.467 1.117-0.467t1.083 0.467l2.133 2.133q0.5 0.5 0.5 1.133t-0.5 1.1q-0.433 0.433-1.1 0.433t-1.1-0.467zM24.667 26.9l-2.133-2.133q-0.467-0.467-0.45-1.117t0.483-1.117q0.433-0.433 1.083-0.433t1.117 0.433l2.167 2.1q0.467 0.467 0.45 1.117t-0.45 1.15q-0.467 0.467-1.133 0.467t-1.133-0.467zM2.133 17.567q-0.667 0-1.117-0.45t-0.45-1.117 0.45-1.117 1.117-0.45h3q0.667 0 1.117 0.45t0.45 1.117-0.45 1.117-1.117 0.45zM5.1 26.9q-0.467-0.467-0.467-1.117t0.467-1.117l2.133-2.133q0.467-0.433 1.117-0.433t1.117 0.433q0.467 0.467 0.467 1.133t-0.467 1.133l-2.1 2.1q-0.467 0.467-1.117 0.467t-1.15-0.467zM16 23.8q-3.267 0-5.533-2.267t-2.267-5.533 2.267-5.533 5.533-2.267 5.533 2.267 2.267 5.533-2.267 5.533-5.533 2.267zM16 20.633q1.933 0 3.3-1.35t1.367-3.283-1.367-3.3-3.3-1.367-3.283 1.367-1.35 3.3 1.35 3.283 3.283 1.35z">
</path>
</symbol>

<symbol id="dark" viewBox="0 0 32 32">
<path d="M16 28.367q-5.167 0-8.767-3.6t-3.6-8.767 3.6-8.783 8.767-3.617h0.433q0.233 0 0.667 0.033-0.9 1.2-1.4 2.617t-0.5 2.95q0 3.167 2.233 5.4t5.433 2.233q1.5 0 2.933-0.433t2.6-1.267v0.833q0 5.167-3.617 8.783t-8.783 3.617zM16 25.233q2.967 0 5.267-1.75t3-4.083q-0.567 0.267-1.283 0.383t-1.383 0.050q-3.733-0.433-6.35-2.983t-3.083-6.483q-0.033-0.5 0.050-1.167t0.417-1.567q-2.533 0.967-4.2 3.317t-1.667 5.050q0 3.867 2.683 6.55t6.55 2.683z">
</path>
</symbol>

<symbol id="to-top-icon" viewBox="0 0 32 32">
<path d="M9.919 8.050l-5.919 5.919v5.063l12-12 12 12v-5.063l-5.925-5.925c-4.694-4.694-5.95-5.919-6.075-5.919s-1.381 1.225-6.081 5.925z"></path>
<path d="M9.919 19.050l-5.919 5.919v5.063l12-12 12 12v-5.063l-5.925-5.925c-4.694-4.694-5.95-5.919-6.075-5.919s-1.381 1.225-6.081 5.925z"></path>
</symbol>

</defs>
</svg>