<svg aria-hidden="true" style="position: absolute; width: 0; height: 0; overflow: hidden;"
    version="1.1" xmlns="http://www.w3.org/2000/svg" xmlns:xlink="http://www.w3.org/1999/xlink">
    <defs>

        <symbol id="icon-film" viewBox="0 0 32 32">
            <path fill="none" stroke="#fff" stroke-width="2.6667" stroke-miterlimit="4"
                stroke-linecap="round" stroke-linejoin="round" style="stroke: var(--color1, #fff)"
                d="M26.427 2.667h-20.853c-1.605 0-2.907 1.301-2.907 2.907v20.853c0 1.605 1.301 2.907 2.907 2.907h20.853c1.605 0 2.907-1.301 2.907-2.907v-20.853c0-1.605-1.301-2.907-2.907-2.907z"></path>
            <path fill="none" stroke="#fff" stroke-width="2.6667" stroke-miterlimit="4"
                stroke-linecap="round" stroke-linejoin="round" style="stroke: var(--color1, #fff)"
                d="M9.333 2.667v26.667"></path>
            <path fill="none" stroke="#fff" stroke-width="2.6667" stroke-miterlimit="4"
                stroke-linecap="round" stroke-linejoin="round" style="stroke: var(--color1, #fff)"
                d="M22.667 2.667v26.667"></path>
            <path fill="none" stroke="#fff" stroke-width="2.6667" stroke-miterlimit="4"
                stroke-linecap="round" stroke-linejoin="round" style="stroke: var(--color1, #fff)"
                d="M2.667 16h26.667"></path>
            <path fill="none" stroke="#fff" stroke-width="2.6667" stroke-miterlimit="4"
                stroke-linecap="round" stroke-linejoin="round" style="stroke: var(--color1, #fff)"
                d="M2.667 9.333h6.667"></path>
            <path fill="none" stroke="#fff" stroke-width="2.6667" stroke-miterlimit="4"
                stroke-linecap="round" stroke-linejoin="round" style="stroke: var(--color1, #fff)"
                d="M2.667 22.667h6.667"></path>
            <path fill="none" stroke="#fff" stroke-width="2.6667" stroke-miterlimit="4"
                stroke-linecap="round" stroke-linejoin="round" style="stroke: var(--color1, #fff)"
                d="M22.667 22.667h6.667"></path>
            <path fill="none" stroke="#fff" stroke-width="2.6667" stroke-miterlimit="4"
                stroke-linecap="round" stroke-linejoin="round" style="stroke: var(--color1, #fff)"
                d="M22.667 9.333h6.667"></path>
        </symbol>


        <symbol id="icon-search" viewBox="0 0 32 32">
            <path stroke="#fff" style="stroke: var(--color3, #fff)"
                stroke-linejoin="round" stroke-linecap="round" stroke-miterlimit="4"
                stroke-width="2.6667"
                d="M14.667 25.333c5.891 0 10.667-4.776 10.667-10.667s-4.776-10.667-10.667-10.667c-5.891 0-10.667 4.776-10.667 10.667s4.776 10.667 10.667 10.667z"></path>
            <path fill="none" stroke="#fff" style="stroke: var(--color3, #fff)"
                stroke-linejoin="round" stroke-linecap="round" stroke-miterlimit="4"
                stroke-width="2.6667" d="M28 28.001l-5.8-5.8"></path>
        </symbol>

        <symbol
            id="footer-heart" viewBox="0 0 34 32">
            <path
                d="M17.231 31.705l-2.412-2.412c-8.96-7.926-14.818-13.268-14.818-19.815 0-5.342 4.135-9.477 9.477-9.477 2.929 0 5.858 1.378 7.754 3.618 1.895-2.24 4.825-3.618 7.754-3.618 5.342 0 9.477 4.135 9.477 9.477 0 6.548-5.858 11.889-14.818 19.815l-2.412 2.412z">
            </path>
        </symbol>

        <symbol id="arrow-pagination" viewBox="0 0 16 16"
            fill="none">
            <path d="M12.667 8H3.333M8 12.667 3.333 8 8 3.333" stroke-width="1.333"
                stroke-linecap="round" stroke-linejoin="round">
            </path>
        </symbol>
        <symbol id="to-top-icon" viewBox="0 0 32 32">
            <path
                d="M9.919 8.050l-5.919 5.919v5.063l12-12 12 12v-5.063l-5.925-5.925c-4.694-4.694-5.95-5.919-6.075-5.919s-1.381 1.225-6.081 5.925z"></path>
            <path
                d="M9.919 19.050l-5.919 5.919v5.063l12-12 12 12v-5.063l-5.925-5.925c-4.694-4.694-5.95-5.919-6.075-5.919s-1.381 1.225-6.081 5.925z"></path>
        </symbol>

        <symbol
            id="icon-close" viewBox="0 0 32 32">
            <path
                d="M23.884 6.706 16 14.59 8.116 6.706a.995.995 0 0 0-1.38.031 1 1 0 0 0-.031 1.38l7.88 7.884-7.882 7.882a1.002 1.002 0 0 0-.018 1.427.998.998 0 0 0 1.427-.015l7.886-7.882 7.884 7.884a1 1 0 0 0 1.38-.03 1 1 0 0 0 .03-1.38l-7.884-7.884 7.884-7.886a1.002 1.002 0 0 0 .018-1.427.998.998 0 0 0-1.427.015v.002z" />
        </symbol>

        <symbol
            id="youtube" viewBox="0 0 32 32">
            <path fill="#f00" style="fill: var(--color1, #f00)"
                d="M31.327 8.273c-0.386-1.353-1.431-2.398-2.756-2.777l-0.028-0.007c-2.493-0.668-12.528-0.668-12.528-0.668s-10.009-0.013-12.528 0.668c-1.353 0.386-2.398 1.431-2.777 2.756l-0.007 0.028c-0.443 2.281-0.696 4.903-0.696 7.585 0 0.054 0 0.109 0 0.163l-0-0.008c-0 0.037-0 0.082-0 0.126 0 2.682 0.253 5.304 0.737 7.845l-0.041-0.26c0.386 1.353 1.431 2.398 2.756 2.777l0.028 0.007c2.491 0.669 12.528 0.669 12.528 0.669s10.008 0 12.528-0.669c1.353-0.386 2.398-1.431 2.777-2.756l0.007-0.028c0.425-2.233 0.668-4.803 0.668-7.429 0-0.099-0-0.198-0.001-0.297l0 0.015c0.001-0.092 0.001-0.201 0.001-0.31 0-2.626-0.243-5.196-0.708-7.687l0.040 0.258zM12.812 20.801v-9.591l8.352 4.803z"></path>
        </symbol>

        <symbol id="youtube" viewBox="0 0 32 32">
            <path
                d="M31.327 8.273c-0.386-1.353-1.431-2.398-2.756-2.777l-0.028-0.007c-2.493-0.668-12.528-0.668-12.528-0.668s-10.009-0.013-12.528 0.668c-1.353 0.386-2.398 1.431-2.777 2.756l-0.007 0.028c-0.443 2.281-0.696 4.903-0.696 7.585 0 0.054 0 0.109 0 0.163l-0-0.008c-0 0.037-0 0.082-0 0.126 0 2.682 0.253 5.304 0.737 7.845l-0.041-0.26c0.386 1.353 1.431 2.398 2.756 2.777l0.028 0.007c2.491 0.669 12.528 0.669 12.528 0.669s10.008 0 12.528-0.669c1.353-0.386 2.398-1.431 2.777-2.756l0.007-0.028c0.425-2.233 0.668-4.803 0.668-7.429 0-0.099-0-0.198-0.001-0.297l0 0.015c0.001-0.092 0.001-0.201 0.001-0.31 0-2.626-0.243-5.196-0.708-7.687l0.040 0.258zM12.812 20.801v-9.591l8.352 4.803z"></path>
        </symbol>

        <symbol id="icon-github" viewBox="0 0 32 32">
            <path
                d="M16 0.395c-8.836 0-16 7.163-16 16 0 7.069 4.585 13.067 10.942 15.182 0.8 0.148 1.094-0.347 1.094-0.77 0-0.381-0.015-1.642-0.022-2.979-4.452 0.968-5.391-1.888-5.391-1.888-0.728-1.849-1.776-2.341-1.776-2.341-1.452-0.993 0.11-0.973 0.11-0.973 1.606 0.113 2.452 1.649 2.452 1.649 1.427 2.446 3.743 1.739 4.656 1.33 0.143-1.034 0.558-1.74 1.016-2.14-3.554-0.404-7.29-1.777-7.29-7.907 0-1.747 0.625-3.174 1.649-4.295-0.166-0.403-0.714-2.030 0.155-4.234 0 0 1.344-0.43 4.401 1.64 1.276-0.355 2.645-0.532 4.005-0.539 1.359 0.006 2.729 0.184 4.008 0.539 3.054-2.070 4.395-1.64 4.395-1.64 0.871 2.204 0.323 3.831 0.157 4.234 1.026 1.12 1.647 2.548 1.647 4.295 0 6.145-3.743 7.498-7.306 7.895 0.574 0.497 1.085 1.47 1.085 2.963 0 2.141-0.019 3.864-0.019 4.391 0 0.426 0.288 0.925 1.099 0.768 6.354-2.118 10.933-8.113 10.933-15.18 0-8.837-7.164-16-16-16z"></path>
        </symbol>
        
        <symbol id="icon-linkedin" viewBox="0 0 32 32">
            <path
                d="M12 12h5.535v2.837h0.079c0.77-1.381 2.655-2.837 5.464-2.837 5.842 0 6.922 3.637 6.922 8.367v9.633h-5.769v-8.54c0-2.037-0.042-4.657-3.001-4.657-3.005 0-3.463 2.218-3.463 4.509v8.688h-5.767v-18z"></path>
            <path d="M2 12h6v18h-6v-18z"></path>
            <path d="M8 7c0 1.657-1.343 3-3 3s-3-1.343-3-3c0-1.657 1.343-3 3-3s3 1.343 3 3z"></path>
        </symbol>
    </defs>
</svg>